<svg width="278" height="31" viewBox="0 0 278 31" fill="none" xmlns="http://www.w3.org/2000/svg">
<g clip-path="url(#clip0)">
<path d="M0.223993 10.728L0.367993 10.62H1.01599C1.42399 10.62 1.93999 10.62 2.56399 10.62C3.18799 10.596 3.72799 10.548 4.18399 10.476L5.44399 10.296L5.65999 10.62C5.61199 10.764 5.56399 10.956 5.51599 11.196C5.49199 11.412 5.45599 11.664 5.40799 11.952C5.38399 12.216 5.35999 12.48 5.33599 12.744C5.31199 13.008 5.29999 13.236 5.29999 13.428L5.40799 13.5C5.67199 13.02 5.97199 12.564 6.30799 12.132C6.66799 11.676 7.07599 11.292 7.53199 10.98C7.98799 10.644 8.50399 10.38 9.07999 10.188C9.65599 9.996 10.316 9.9 11.06 9.9C11.684 9.9 12.296 9.984 12.896 10.152C13.496 10.296 14.048 10.536 14.552 10.872C15.08 11.184 15.536 11.604 15.92 12.132C16.328 12.636 16.64 13.248 16.856 13.968C17.144 13.44 17.456 12.936 17.792 12.456C18.152 11.952 18.56 11.52 19.016 11.16C19.496 10.776 20.036 10.476 20.636 10.26C21.26 10.02 21.968 9.9 22.76 9.9C23.456 9.9 24.128 9.996 24.776 10.188C25.448 10.38 26.048 10.68 26.576 11.088C27.128 11.496 27.596 12.012 27.98 12.636C28.388 13.26 28.664 14.016 28.808 14.904C28.928 15.528 28.988 16.188 28.988 16.884C29.012 17.58 29.024 18.276 29.024 18.972V24.192C29.024 24.744 29.072 25.152 29.168 25.416C29.264 25.656 29.396 25.836 29.564 25.956C29.756 26.148 30.032 26.268 30.392 26.316C30.776 26.34 31.16 26.352 31.544 26.352L31.688 26.496L31.76 27L31.688 27.144C31.256 27.096 30.788 27.06 30.284 27.036C29.804 27.012 29.312 27 28.808 27C27.92 27 27.104 27.036 26.36 27.108L26.108 26.748C26.204 26.436 26.276 26.028 26.324 25.524C26.372 25.02 26.408 24.576 26.432 24.192C26.456 23.832 26.468 23.388 26.468 22.86C26.492 22.332 26.504 21.804 26.504 21.276C26.528 20.724 26.54 20.208 26.54 19.728C26.54 19.248 26.54 18.876 26.54 18.612C26.54 18.132 26.516 17.532 26.468 16.812C26.444 16.068 26.372 15.444 26.252 14.94C26.012 13.956 25.52 13.212 24.776 12.708C24.056 12.204 23.24 11.952 22.328 11.952C21.656 11.952 21.032 12.084 20.456 12.348C19.904 12.588 19.412 12.9 18.98 13.284C18.548 13.644 18.176 14.052 17.864 14.508C17.576 14.964 17.36 15.396 17.216 15.804C17.264 16.332 17.288 16.86 17.288 17.388C17.312 17.916 17.324 18.444 17.324 18.972V24.192C17.324 24.696 17.372 25.08 17.468 25.344C17.564 25.584 17.708 25.788 17.9 25.956C18.092 26.124 18.356 26.232 18.692 26.28C19.052 26.328 19.412 26.352 19.772 26.352L19.952 26.532L20.024 27L19.952 27.144C19.784 27.144 19.532 27.132 19.196 27.108C18.86 27.084 18.5 27.06 18.116 27.036C17.732 27.036 17.372 27.024 17.036 27C16.7 27 16.448 27 16.28 27H15.776C15.608 27 15.344 27 14.984 27C14.648 27.024 14.288 27.036 13.904 27.036C13.544 27.06 13.184 27.084 12.824 27.108C12.488 27.132 12.236 27.144 12.068 27.144L11.996 27L12.068 26.496L12.212 26.352C12.596 26.352 12.968 26.34 13.328 26.316C13.712 26.268 14 26.148 14.192 25.956C14.384 25.788 14.504 25.572 14.552 25.308C14.6 25.044 14.648 24.672 14.696 24.192C14.72 23.832 14.732 23.388 14.732 22.86C14.756 22.332 14.768 21.804 14.768 21.276C14.792 20.724 14.804 20.208 14.804 19.728C14.828 19.248 14.84 18.876 14.84 18.612C14.84 18.372 14.84 18.096 14.84 17.784C14.84 17.448 14.828 17.112 14.804 16.776C14.78 16.44 14.744 16.116 14.696 15.804C14.672 15.492 14.624 15.204 14.552 14.94C14.288 13.956 13.796 13.212 13.076 12.708C12.356 12.204 11.54 11.952 10.628 11.952C9.83599 11.952 9.11599 12.132 8.46799 12.492C7.81999 12.828 7.25599 13.248 6.77599 13.752C6.31999 14.232 5.95999 14.748 5.69599 15.3C5.45599 15.828 5.33599 16.284 5.33599 16.668V20.7C5.33599 21.228 5.33599 21.66 5.33599 21.996C5.35999 22.332 5.37199 22.62 5.37199 22.86C5.39599 23.1 5.40799 23.328 5.40799 23.544C5.43199 23.736 5.45599 23.952 5.47999 24.192C5.52799 24.696 5.57599 25.08 5.62399 25.344C5.69599 25.584 5.82799 25.788 6.01999 25.956C6.21199 26.124 6.47599 26.232 6.81199 26.28C7.17199 26.328 7.53199 26.352 7.89199 26.352L8.07199 26.532L8.14399 27L8.07199 27.144C7.90399 27.144 7.65199 27.132 7.31599 27.108C6.97999 27.084 6.61999 27.06 6.23599 27.036C5.85199 27.036 5.49199 27.024 5.15599 27C4.81999 27 4.56799 27 4.39999 27H3.89599C3.72799 27 3.46399 27 3.10399 27C2.76799 27.024 2.40799 27.036 2.02399 27.036C1.66399 27.06 1.30399 27.084 0.943993 27.108C0.607993 27.132 0.355993 27.144 0.187993 27.144L0.151993 27L0.187993 26.496L0.331993 26.352C0.715993 26.352 1.08799 26.34 1.44799 26.316C1.83199 26.268 2.11999 26.148 2.31199 25.956C2.50399 25.788 2.62399 25.572 2.67199 25.308C2.74399 25.044 2.80399 24.672 2.85199 24.192C2.87599 23.808 2.89999 23.424 2.92399 23.04C2.94799 22.632 2.95999 21.996 2.95999 21.132V16.704C2.95999 16.2 2.95999 15.78 2.95999 15.444C2.95999 15.084 2.94799 14.772 2.92399 14.508C2.92399 14.244 2.91199 14.004 2.88799 13.788C2.88799 13.572 2.87599 13.344 2.85199 13.104C2.80399 12.84 2.73199 12.612 2.63599 12.42C2.53999 12.204 2.45599 12.06 2.38399 11.988C2.14399 11.7 1.84399 11.532 1.48399 11.484C1.12399 11.412 0.751993 11.376 0.367993 11.376L0.223993 11.232V10.728ZM49.5378 17.316L48.9618 17.568C47.6658 17.568 46.3338 17.58 44.9658 17.604C43.5978 17.628 42.2538 17.64 40.9338 17.64H36.6858C36.6618 17.808 36.6498 17.976 36.6498 18.144C36.6498 18.288 36.6498 18.432 36.6498 18.576C36.6498 19.488 36.7818 20.364 37.0458 21.204C37.3098 22.02 37.7178 22.74 38.2698 23.364C38.8458 23.988 39.5778 24.492 40.4658 24.876C41.3538 25.236 42.4338 25.416 43.7058 25.416C44.4498 25.416 45.2418 25.344 46.0818 25.2C46.9458 25.032 47.7378 24.744 48.4578 24.336L48.8178 24.552V25.2L48.4578 25.596C47.8818 26.052 47.0658 26.472 46.0098 26.856C44.9538 27.216 43.7778 27.396 42.4818 27.396C41.2098 27.396 40.0458 27.192 38.9898 26.784C37.9578 26.352 37.0578 25.752 36.2898 24.984C35.5458 24.216 34.9578 23.304 34.5258 22.248C34.1178 21.192 33.9138 20.016 33.9138 18.72C33.9138 17.4 34.1298 16.2 34.5618 15.12C34.9938 14.04 35.5818 13.116 36.3258 12.348C37.0938 11.58 37.9818 10.98 38.9898 10.548C40.0218 10.116 41.1258 9.9 42.3018 9.9C42.9258 9.9 43.6218 9.984 44.3898 10.152C45.1818 10.32 45.9378 10.644 46.6578 11.124C47.3778 11.58 48.0258 12.24 48.6018 13.104C49.1778 13.944 49.5738 15.06 49.7898 16.452L49.5378 17.316ZM42.3378 11.52C41.5698 11.52 40.8738 11.652 40.2498 11.916C39.6498 12.156 39.1098 12.492 38.6298 12.924C38.1738 13.332 37.7898 13.824 37.4778 14.4C37.1898 14.952 36.9858 15.54 36.8658 16.164H38.2698C39.5658 16.164 40.8258 16.152 42.0498 16.128C43.2738 16.08 44.5578 16.02 45.9018 15.948C46.2138 15.924 46.4178 15.84 46.5138 15.696C46.6338 15.552 46.6938 15.384 46.6938 15.192C46.6938 15.048 46.6818 14.916 46.6578 14.796C46.6338 14.676 46.5978 14.556 46.5498 14.436C46.2858 13.524 45.7938 12.816 45.0738 12.312C44.3538 11.784 43.4418 11.52 42.3378 11.52ZM66.6159 23.904C65.9919 24.912 65.1879 25.752 64.2039 26.424C63.2439 27.072 62.0559 27.396 60.6399 27.396C59.9439 27.396 59.2719 27.312 58.6239 27.144C57.9999 27 57.4119 26.748 56.8599 26.388C56.3319 26.028 55.8759 25.548 55.4919 24.948C55.1079 24.348 54.8319 23.592 54.6639 22.68C54.5439 22.056 54.4839 21.408 54.4839 20.736C54.5079 20.04 54.5079 19.344 54.4839 18.648C54.4839 18.336 54.4719 17.916 54.4479 17.388C54.4479 16.836 54.4479 16.284 54.4479 15.732C54.4479 15.156 54.4479 14.628 54.4479 14.148C54.4479 13.668 54.4479 13.32 54.4479 13.104C54.4479 12.84 54.3879 12.612 54.2679 12.42C54.1479 12.204 54.0519 12.048 53.9799 11.952C53.7399 11.688 53.4399 11.532 53.0799 11.484C52.7199 11.412 52.3479 11.376 51.9639 11.376L51.8559 11.232V10.728L51.9639 10.62H52.6119C53.0199 10.62 53.5359 10.62 54.1599 10.62C54.7839 10.596 55.3239 10.548 55.7799 10.476L57.0399 10.296L57.2559 10.62C57.2079 10.716 57.1719 10.896 57.1479 11.16C57.1239 11.4 57.0999 11.664 57.0759 11.952C57.0519 12.24 57.0399 12.516 57.0399 12.78C57.0399 13.044 57.0399 13.248 57.0399 13.392C57.0399 13.8 57.0279 14.256 57.0039 14.76C57.0039 15.24 56.9919 15.732 56.9679 16.236C56.9679 16.74 56.9559 17.22 56.9319 17.676C56.9319 18.132 56.9319 18.516 56.9319 18.828C56.9319 19.356 56.9439 19.956 56.9679 20.628C57.0159 21.276 57.0999 21.84 57.2199 22.32C57.4599 23.448 57.9519 24.288 58.6959 24.84C59.4399 25.392 60.3039 25.668 61.2879 25.668C62.0319 25.668 62.7159 25.524 63.3399 25.236C63.9639 24.924 64.5039 24.552 64.9599 24.12C65.4399 23.688 65.8239 23.232 66.1119 22.752C66.4239 22.248 66.6279 21.792 66.7239 21.384V16.704C66.7239 16.2 66.7119 15.78 66.6879 15.444C66.6879 15.084 66.6759 14.772 66.6519 14.508C66.6519 14.244 66.6399 14.004 66.6159 13.788C66.6159 13.572 66.6039 13.344 66.5799 13.104C66.5319 12.84 66.4599 12.612 66.3639 12.42C66.2919 12.204 66.2199 12.06 66.1479 11.988C65.9079 11.7 65.6079 11.532 65.2479 11.484C64.8879 11.412 64.5159 11.376 64.1319 11.376L63.9879 11.232V10.728L64.1319 10.62H64.7799C65.1879 10.62 65.7039 10.62 66.3279 10.62C66.9519 10.596 67.4799 10.548 67.9119 10.476L69.1719 10.296L69.3879 10.62C69.3399 10.716 69.3039 10.896 69.2799 11.16C69.2559 11.4 69.2319 11.664 69.2079 11.952C69.1839 12.24 69.1719 12.516 69.1719 12.78C69.1719 13.044 69.1719 13.248 69.1719 13.392C69.1719 13.584 69.1599 13.764 69.1359 13.932C69.1359 14.1 69.1359 14.304 69.1359 14.544C69.1359 14.784 69.1239 15.072 69.0999 15.408C69.0999 15.72 69.0999 16.14 69.0999 16.668V20.7C69.0999 21.228 69.0999 21.66 69.0999 21.996C69.1239 22.332 69.1359 22.62 69.1359 22.86C69.1599 23.1 69.1719 23.328 69.1719 23.544C69.1959 23.736 69.2079 23.952 69.2079 24.192C69.2559 24.744 69.3159 25.152 69.3879 25.416C69.4599 25.656 69.5799 25.836 69.7479 25.956C69.9399 26.148 70.2159 26.268 70.5759 26.316C70.9599 26.34 71.3439 26.352 71.7279 26.352L71.8719 26.496L71.9439 27L71.8719 27.144C71.4399 27.096 70.9719 27.06 70.4679 27.036C69.9639 27.012 69.4719 27 68.9919 27C68.0799 27 67.2519 27.036 66.5079 27.108L66.2919 26.748C66.3639 26.436 66.4359 26.028 66.5079 25.524C66.6039 25.02 66.6759 24.504 66.7239 23.976L66.6159 23.904ZM114.631 27.144C114.463 27.144 114.211 27.132 113.875 27.108C113.539 27.084 113.179 27.06 112.795 27.036C112.411 27.036 112.051 27.024 111.715 27C111.379 27 111.127 27 110.959 27H110.455C110.287 27 110.023 27 109.663 27C109.327 27.024 108.967 27.036 108.583 27.036C108.223 27.06 107.863 27.084 107.503 27.108C107.167 27.132 106.915 27.144 106.747 27.144L106.711 27L106.747 26.496L106.891 26.352C107.275 26.352 107.647 26.34 108.007 26.316C108.391 26.268 108.679 26.148 108.871 25.956C109.063 25.788 109.183 25.572 109.231 25.308C109.303 25.044 109.363 24.672 109.411 24.192C109.435 23.808 109.459 23.424 109.483 23.04C109.507 22.632 109.519 21.996 109.519 21.132V16.704C109.519 16.2 109.519 15.78 109.519 15.444C109.519 15.084 109.507 14.772 109.483 14.508C109.483 14.244 109.471 14.004 109.447 13.788C109.447 13.572 109.435 13.344 109.411 13.104C109.387 13.008 109.351 12.9 109.303 12.78C109.279 12.66 109.207 12.552 109.087 12.456C108.991 12.36 108.835 12.288 108.619 12.24C108.403 12.168 108.115 12.132 107.755 12.132H99.9432V17.712C99.9432 18.72 99.9432 19.572 99.9432 20.268C99.9432 20.94 99.9432 21.516 99.9432 21.996C99.9672 22.452 99.9912 22.848 100.015 23.184C100.039 23.52 100.063 23.856 100.087 24.192C100.135 24.552 100.183 24.9 100.231 25.236C100.303 25.548 100.435 25.788 100.627 25.956C100.747 26.052 100.915 26.124 101.131 26.172C101.371 26.22 101.611 26.256 101.851 26.28C102.115 26.304 102.367 26.328 102.607 26.352C102.847 26.352 103.039 26.352 103.183 26.352L103.363 26.532L103.435 27L103.363 27.144C103.195 27.144 102.919 27.132 102.535 27.108C102.175 27.084 101.791 27.06 101.383 27.036C100.975 27.036 100.579 27.024 100.195 27C99.8352 27 99.5712 27 99.4032 27H98.5392C98.3712 27 98.1072 27 97.7472 27C97.4112 27.024 97.0512 27.036 96.6672 27.036C96.2832 27.06 95.9112 27.084 95.5512 27.108C95.2152 27.132 94.9632 27.144 94.7952 27.144L94.7592 27L94.7952 26.496L94.9392 26.352C95.3232 26.352 95.6952 26.34 96.0552 26.316C96.4392 26.268 96.7272 26.148 96.9192 25.956C97.0632 25.812 97.1832 25.632 97.2792 25.416C97.3752 25.176 97.4352 24.792 97.4592 24.264C97.5072 23.736 97.5312 23.028 97.5312 22.14C97.5552 21.252 97.5672 20.064 97.5672 18.576V12.132H94.9032L94.7592 11.952V11.304L94.9032 11.16L97.5672 10.62V9.504C97.5672 8.088 97.6992 6.804 97.9632 5.652C98.2272 4.5 98.6472 3.528 99.2232 2.736C99.7992 1.92 100.543 1.296 101.455 0.863999C102.367 0.407997 103.471 0.179996 104.767 0.179996C105.847 0.179996 106.855 0.323996 107.791 0.611997C108.727 0.875996 109.507 1.224 110.131 1.656L110.311 2.016L109.879 4.788H108.943C108.751 3.876 108.283 3.18 107.539 2.7C106.795 2.196 105.703 1.944 104.263 1.944C103.279 1.944 102.499 2.112 101.923 2.448C101.371 2.76 100.939 3.192 100.627 3.744C100.339 4.272 100.147 4.884 100.051 5.58C99.9792 6.276 99.9432 6.996 99.9432 7.74V10.62C102.631 10.62 104.983 10.596 106.999 10.548C109.039 10.5 110.707 10.416 112.003 10.296L112.219 10.62C112.171 10.716 112.123 10.884 112.075 11.124C112.051 11.364 112.027 11.628 112.003 11.916C112.003 12.18 111.991 12.444 111.967 12.708C111.967 12.972 111.967 13.176 111.967 13.32C111.967 13.512 111.955 13.704 111.931 13.896C111.931 14.064 111.931 14.268 111.931 14.508C111.931 14.748 111.919 15.036 111.895 15.372C111.895 15.708 111.895 16.14 111.895 16.668V20.7C111.895 21.228 111.895 21.66 111.895 21.996C111.919 22.332 111.931 22.62 111.931 22.86C111.955 23.1 111.967 23.328 111.967 23.544C111.991 23.736 112.015 23.952 112.039 24.192C112.087 24.696 112.135 25.08 112.183 25.344C112.255 25.584 112.387 25.788 112.579 25.956C112.771 26.124 113.035 26.232 113.371 26.28C113.731 26.328 114.091 26.352 114.451 26.352L114.631 26.532L114.703 27L114.631 27.144ZM121.916 13.536C122.54 12.504 123.344 11.64 124.328 10.944C125.312 10.248 126.536 9.9 128 9.9C128.672 9.9 129.344 9.996 130.016 10.188C130.688 10.38 131.3 10.68 131.852 11.088C132.428 11.496 132.896 12.024 133.256 12.672C133.64 13.296 133.892 14.04 134.012 14.904C134.084 15.528 134.12 16.188 134.12 16.884C134.144 17.58 134.156 18.276 134.156 18.972C134.156 19.836 134.156 20.712 134.156 21.6C134.18 22.464 134.192 23.328 134.192 24.192C134.24 24.744 134.3 25.152 134.372 25.416C134.444 25.656 134.552 25.836 134.696 25.956C134.912 26.148 135.2 26.268 135.56 26.316C135.944 26.34 136.328 26.352 136.712 26.352L136.82 26.496L136.892 27L136.82 27.144C136.412 27.096 135.956 27.06 135.452 27.036C134.948 27.012 134.456 27 133.976 27C133.064 27 132.236 27.036 131.492 27.108L131.24 26.748C131.336 26.436 131.408 26.028 131.456 25.524C131.504 25.02 131.54 24.576 131.564 24.192C131.612 23.184 131.648 22.2 131.672 21.24C131.696 20.256 131.708 19.44 131.708 18.792C131.708 18.24 131.684 17.64 131.636 16.992C131.612 16.344 131.54 15.78 131.42 15.3C131.18 14.172 130.688 13.332 129.944 12.78C129.2 12.228 128.336 11.952 127.352 11.952C126.56 11.952 125.816 12.12 125.12 12.456C124.448 12.792 123.872 13.212 123.392 13.716C122.912 14.196 122.528 14.712 122.24 15.264C121.976 15.792 121.844 16.248 121.844 16.632V20.7C121.844 21.228 121.844 21.66 121.844 21.996C121.844 22.332 121.844 22.62 121.844 22.86C121.868 23.1 121.892 23.328 121.916 23.544C121.94 23.736 121.964 23.952 121.988 24.192C122.036 24.696 122.084 25.08 122.132 25.344C122.204 25.584 122.336 25.788 122.528 25.956C122.72 26.124 122.984 26.232 123.32 26.28C123.68 26.328 124.04 26.352 124.4 26.352L124.58 26.532L124.652 27L124.58 27.144C124.412 27.144 124.16 27.132 123.824 27.108C123.488 27.084 123.128 27.06 122.744 27.036C122.36 27.036 122 27.024 121.664 27C121.328 27 121.076 27 120.908 27H120.404C120.236 27 119.972 27 119.612 27C119.276 27.024 118.916 27.036 118.532 27.036C118.172 27.06 117.812 27.084 117.452 27.108C117.116 27.132 116.864 27.144 116.696 27.144L116.66 27L116.696 26.496L116.84 26.352C117.224 26.352 117.596 26.34 117.956 26.316C118.34 26.268 118.628 26.148 118.82 25.956C119.012 25.788 119.132 25.572 119.18 25.308C119.252 25.044 119.312 24.672 119.36 24.192C119.384 23.808 119.408 23.424 119.432 23.04C119.456 22.632 119.468 21.996 119.468 21.132V16.704C119.468 16.2 119.468 15.78 119.468 15.444C119.468 15.084 119.456 14.772 119.432 14.508C119.432 14.244 119.42 14.004 119.396 13.788C119.396 13.572 119.384 13.344 119.36 13.104C119.312 12.84 119.24 12.612 119.144 12.42C119.048 12.204 118.964 12.06 118.892 11.988C118.652 11.7 118.352 11.532 117.992 11.484C117.632 11.412 117.26 11.376 116.876 11.376L116.732 11.232V10.728L116.876 10.62H117.524C117.932 10.62 118.448 10.62 119.072 10.62C119.696 10.596 120.236 10.548 120.692 10.476L121.952 10.296L122.168 10.62C122.048 10.932 121.964 11.364 121.916 11.916C121.868 12.444 121.832 12.96 121.808 13.464L121.916 13.536ZM149.109 26.748C149.181 26.484 149.229 26.088 149.253 25.56C149.301 25.032 149.361 24.54 149.433 24.084L149.397 23.976C149.085 24.408 148.713 24.828 148.281 25.236C147.849 25.644 147.369 26.016 146.841 26.352C146.337 26.664 145.785 26.916 145.185 27.108C144.609 27.3 143.997 27.396 143.349 27.396C142.605 27.396 141.945 27.264 141.369 27C140.793 26.736 140.313 26.388 139.929 25.956C139.545 25.524 139.257 25.02 139.065 24.444C138.873 23.868 138.777 23.268 138.777 22.644C138.777 21.756 138.981 20.988 139.389 20.34C139.797 19.668 140.337 19.116 141.009 18.684C141.633 18.3 142.365 17.988 143.205 17.748C144.069 17.508 144.897 17.34 145.689 17.244C146.505 17.124 147.237 17.052 147.885 17.028C148.533 16.98 148.965 16.956 149.181 16.956H149.685C149.661 16.068 149.613 15.372 149.541 14.868C149.469 14.34 149.373 13.908 149.253 13.572C148.989 12.852 148.533 12.336 147.885 12.024C147.237 11.688 146.457 11.52 145.545 11.52C145.161 11.52 144.741 11.556 144.285 11.628C143.853 11.7 143.433 11.832 143.025 12.024C142.641 12.216 142.305 12.492 142.017 12.852C141.729 13.188 141.561 13.632 141.513 14.184L141.369 14.292H140.577L140.253 11.628L140.361 11.412C140.481 11.268 140.733 11.112 141.117 10.944C141.501 10.776 141.945 10.62 142.449 10.476C142.977 10.308 143.553 10.176 144.177 10.08C144.825 9.96 145.461 9.9 146.085 9.9C146.949 9.9 147.753 10.02 148.497 10.26C149.241 10.476 149.877 10.812 150.405 11.268C150.957 11.724 151.389 12.3 151.701 12.996C152.013 13.668 152.169 14.46 152.169 15.372C152.169 16.38 152.157 17.28 152.133 18.072C152.133 18.84 152.121 19.56 152.097 20.232C152.073 20.88 152.049 21.528 152.025 22.176C152.025 22.8 152.025 23.472 152.025 24.192C152.073 24.744 152.133 25.152 152.205 25.416C152.277 25.656 152.397 25.836 152.565 25.956C152.757 26.148 153.033 26.268 153.393 26.316C153.777 26.34 154.161 26.352 154.545 26.352L154.689 26.496L154.725 27L154.689 27.144C154.257 27.096 153.789 27.06 153.285 27.036C152.781 27.012 152.289 27 151.809 27C150.897 27 150.069 27.036 149.325 27.108L149.109 26.748ZM149.109 22.86C149.181 22.74 149.253 22.596 149.325 22.428C149.421 22.26 149.481 22.056 149.505 21.816L149.685 18.216H149.361C148.401 18.216 147.441 18.276 146.481 18.396C145.521 18.492 144.657 18.696 143.889 19.008C143.145 19.32 142.533 19.752 142.053 20.304C141.573 20.856 141.333 21.564 141.333 22.428C141.333 23.34 141.597 24.072 142.125 24.624C142.653 25.152 143.337 25.416 144.177 25.416C144.681 25.416 145.185 25.332 145.689 25.164C146.193 24.996 146.661 24.78 147.093 24.516C147.549 24.252 147.945 23.976 148.281 23.688C148.641 23.4 148.917 23.124 149.109 22.86ZM161.713 13.536C162.337 12.504 163.141 11.64 164.125 10.944C165.109 10.248 166.333 9.9 167.797 9.9C168.469 9.9 169.141 9.996 169.813 10.188C170.485 10.38 171.097 10.68 171.649 11.088C172.225 11.496 172.693 12.024 173.053 12.672C173.437 13.296 173.689 14.04 173.809 14.904C173.881 15.528 173.917 16.188 173.917 16.884C173.941 17.58 173.953 18.276 173.953 18.972C173.953 19.836 173.953 20.712 173.953 21.6C173.977 22.464 173.989 23.328 173.989 24.192C174.037 24.744 174.097 25.152 174.169 25.416C174.241 25.656 174.349 25.836 174.493 25.956C174.709 26.148 174.997 26.268 175.357 26.316C175.741 26.34 176.125 26.352 176.509 26.352L176.617 26.496L176.689 27L176.617 27.144C176.209 27.096 175.753 27.06 175.249 27.036C174.745 27.012 174.253 27 173.773 27C172.861 27 172.033 27.036 171.289 27.108L171.037 26.748C171.133 26.436 171.205 26.028 171.253 25.524C171.301 25.02 171.337 24.576 171.361 24.192C171.409 23.184 171.445 22.2 171.469 21.24C171.493 20.256 171.505 19.44 171.505 18.792C171.505 18.24 171.481 17.64 171.433 16.992C171.409 16.344 171.337 15.78 171.217 15.3C170.977 14.172 170.485 13.332 169.741 12.78C168.997 12.228 168.133 11.952 167.149 11.952C166.357 11.952 165.613 12.12 164.917 12.456C164.245 12.792 163.669 13.212 163.189 13.716C162.709 14.196 162.325 14.712 162.037 15.264C161.773 15.792 161.641 16.248 161.641 16.632V20.7C161.641 21.228 161.641 21.66 161.641 21.996C161.641 22.332 161.641 22.62 161.641 22.86C161.665 23.1 161.689 23.328 161.713 23.544C161.737 23.736 161.761 23.952 161.785 24.192C161.833 24.696 161.881 25.08 161.929 25.344C162.001 25.584 162.133 25.788 162.325 25.956C162.517 26.124 162.781 26.232 163.117 26.28C163.477 26.328 163.837 26.352 164.197 26.352L164.377 26.532L164.449 27L164.377 27.144C164.209 27.144 163.957 27.132 163.621 27.108C163.285 27.084 162.925 27.06 162.541 27.036C162.157 27.036 161.797 27.024 161.461 27C161.125 27 160.873 27 160.705 27H160.201C160.033 27 159.769 27 159.409 27C159.073 27.024 158.713 27.036 158.329 27.036C157.969 27.06 157.609 27.084 157.249 27.108C156.913 27.132 156.661 27.144 156.493 27.144L156.457 27L156.493 26.496L156.637 26.352C157.021 26.352 157.393 26.34 157.753 26.316C158.137 26.268 158.425 26.148 158.617 25.956C158.809 25.788 158.929 25.572 158.977 25.308C159.049 25.044 159.109 24.672 159.157 24.192C159.181 23.808 159.205 23.424 159.229 23.04C159.253 22.632 159.265 21.996 159.265 21.132V16.704C159.265 16.2 159.265 15.78 159.265 15.444C159.265 15.084 159.253 14.772 159.229 14.508C159.229 14.244 159.217 14.004 159.193 13.788C159.193 13.572 159.181 13.344 159.157 13.104C159.109 12.84 159.037 12.612 158.941 12.42C158.845 12.204 158.761 12.06 158.689 11.988C158.449 11.7 158.149 11.532 157.789 11.484C157.429 11.412 157.057 11.376 156.673 11.376L156.529 11.232V10.728L156.673 10.62H157.321C157.729 10.62 158.245 10.62 158.869 10.62C159.493 10.596 160.033 10.548 160.489 10.476L161.749 10.296L161.965 10.62C161.845 10.932 161.761 11.364 161.713 11.916C161.665 12.444 161.629 12.96 161.605 13.464L161.713 13.536ZM192.614 14.292L192.47 14.184C192.47 13.632 192.302 13.188 191.966 12.852C191.654 12.492 191.27 12.216 190.814 12.024C190.358 11.832 189.866 11.7 189.338 11.628C188.834 11.556 188.39 11.52 188.006 11.52C186.902 11.52 185.942 11.724 185.126 12.132C184.334 12.516 183.674 13.044 183.146 13.716C182.618 14.364 182.222 15.12 181.958 15.984C181.718 16.824 181.598 17.688 181.598 18.576C181.598 19.488 181.73 20.364 181.994 21.204C182.282 22.044 182.714 22.788 183.29 23.436C183.866 24.084 184.586 24.6 185.45 24.984C186.314 25.368 187.346 25.56 188.546 25.56C189.362 25.56 190.262 25.44 191.246 25.2C192.254 24.936 193.118 24.612 193.838 24.228L194.198 24.588L193.658 25.596C193.394 25.788 193.046 25.992 192.614 26.208C192.206 26.4 191.738 26.592 191.21 26.784C190.682 26.952 190.106 27.096 189.482 27.216C188.882 27.336 188.282 27.396 187.682 27.396C186.506 27.396 185.378 27.192 184.298 26.784C183.242 26.352 182.306 25.764 181.49 25.02C180.698 24.252 180.062 23.34 179.582 22.284C179.102 21.204 178.862 20.016 178.862 18.72C178.862 17.4 179.102 16.2 179.582 15.12C180.062 14.04 180.722 13.116 181.562 12.348C182.402 11.58 183.374 10.98 184.478 10.548C185.606 10.116 186.806 9.9 188.078 9.9C189.23 9.9 190.31 10.044 191.318 10.332C192.35 10.62 193.13 10.908 193.658 11.196L193.766 11.52L193.37 14.292H192.614ZM212.593 17.316L212.017 17.568C210.721 17.568 209.389 17.58 208.021 17.604C206.653 17.628 205.309 17.64 203.989 17.64H199.741C199.717 17.808 199.705 17.976 199.705 18.144C199.705 18.288 199.705 18.432 199.705 18.576C199.705 19.488 199.837 20.364 200.101 21.204C200.365 22.02 200.773 22.74 201.325 23.364C201.901 23.988 202.633 24.492 203.521 24.876C204.409 25.236 205.489 25.416 206.761 25.416C207.505 25.416 208.297 25.344 209.137 25.2C210.001 25.032 210.793 24.744 211.513 24.336L211.873 24.552V25.2L211.513 25.596C210.937 26.052 210.121 26.472 209.065 26.856C208.009 27.216 206.833 27.396 205.537 27.396C204.265 27.396 203.101 27.192 202.045 26.784C201.013 26.352 200.113 25.752 199.345 24.984C198.601 24.216 198.013 23.304 197.581 22.248C197.173 21.192 196.969 20.016 196.969 18.72C196.969 17.4 197.185 16.2 197.617 15.12C198.049 14.04 198.637 13.116 199.381 12.348C200.149 11.58 201.037 10.98 202.045 10.548C203.077 10.116 204.181 9.9 205.357 9.9C205.981 9.9 206.677 9.984 207.445 10.152C208.237 10.32 208.993 10.644 209.713 11.124C210.433 11.58 211.081 12.24 211.657 13.104C212.233 13.944 212.629 15.06 212.845 16.452L212.593 17.316ZM205.393 11.52C204.625 11.52 203.929 11.652 203.305 11.916C202.705 12.156 202.165 12.492 201.685 12.924C201.229 13.332 200.845 13.824 200.533 14.4C200.245 14.952 200.041 15.54 199.921 16.164H201.325C202.621 16.164 203.881 16.152 205.105 16.128C206.329 16.08 207.613 16.02 208.957 15.948C209.269 15.924 209.473 15.84 209.569 15.696C209.689 15.552 209.749 15.384 209.749 15.192C209.749 15.048 209.737 14.916 209.713 14.796C209.689 14.676 209.653 14.556 209.605 14.436C209.341 13.524 208.849 12.816 208.129 12.312C207.409 11.784 206.497 11.52 205.393 11.52ZM223.299 27.144C223.131 27.144 222.879 27.132 222.543 27.108C222.207 27.084 221.847 27.06 221.463 27.036C221.079 27.036 220.719 27.024 220.383 27C220.047 27 219.795 27 219.627 27H219.123C218.955 27 218.691 27 218.331 27C217.995 27.024 217.635 27.036 217.251 27.036C216.891 27.06 216.531 27.084 216.171 27.108C215.835 27.132 215.583 27.144 215.415 27.144L215.379 27L215.415 26.496L215.559 26.352C215.943 26.352 216.315 26.34 216.675 26.316C217.059 26.268 217.347 26.148 217.539 25.956C217.731 25.788 217.851 25.572 217.899 25.308C217.971 25.044 218.031 24.672 218.079 24.192C218.103 23.808 218.127 23.424 218.151 23.04C218.175 22.632 218.187 21.996 218.187 21.132V16.704C218.187 16.2 218.187 15.78 218.187 15.444C218.187 15.084 218.175 14.772 218.151 14.508C218.151 14.244 218.139 14.004 218.115 13.788C218.115 13.572 218.103 13.344 218.079 13.104C218.031 12.84 217.959 12.612 217.863 12.42C217.767 12.204 217.683 12.06 217.611 11.988C217.371 11.7 217.071 11.532 216.711 11.484C216.351 11.412 215.979 11.376 215.595 11.376L215.451 11.232V10.728L215.595 10.62H216.243C216.651 10.62 217.167 10.62 217.791 10.62C218.415 10.596 218.955 10.548 219.411 10.476L220.671 10.296L220.887 10.62C220.839 10.716 220.791 10.884 220.743 11.124C220.719 11.364 220.695 11.628 220.671 11.916C220.671 12.18 220.659 12.444 220.635 12.708C220.635 12.972 220.635 13.176 220.635 13.32C220.635 13.512 220.623 13.704 220.599 13.896C220.599 14.064 220.599 14.268 220.599 14.508C220.599 14.748 220.587 15.036 220.563 15.372C220.563 15.708 220.563 16.14 220.563 16.668V20.7C220.563 21.228 220.563 21.66 220.563 21.996C220.587 22.332 220.599 22.62 220.599 22.86C220.623 23.1 220.635 23.328 220.635 23.544C220.659 23.736 220.683 23.952 220.707 24.192C220.755 24.696 220.803 25.08 220.851 25.344C220.923 25.584 221.055 25.788 221.247 25.956C221.439 26.124 221.703 26.232 222.039 26.28C222.399 26.328 222.759 26.352 223.119 26.352L223.299 26.532L223.371 27L223.299 27.144ZM217.251 4.284C217.251 3.804 217.407 3.396 217.719 3.06C218.055 2.7 218.463 2.52 218.943 2.52C219.423 2.52 219.831 2.7 220.167 3.06C220.527 3.396 220.707 3.804 220.707 4.284C220.707 4.764 220.527 5.172 220.167 5.508C219.831 5.82 219.423 5.976 218.943 5.976C218.463 5.976 218.055 5.82 217.719 5.508C217.407 5.172 217.251 4.764 217.251 4.284ZM230.548 14.256C230.788 13.8 231.052 13.32 231.34 12.816C231.652 12.312 232 11.844 232.384 11.412C232.768 10.98 233.2 10.62 233.68 10.332C234.184 10.044 234.748 9.9 235.372 9.9C235.804 9.9 236.284 9.972 236.812 10.116C237.364 10.236 237.736 10.404 237.928 10.62L238.216 10.944L237.784 13.716H236.596C236.524 13.38 236.332 13.08 236.02 12.816C235.732 12.528 235.276 12.384 234.652 12.384C234.052 12.384 233.5 12.564 232.996 12.924C232.492 13.26 232.048 13.692 231.664 14.22C231.304 14.748 231.016 15.312 230.8 15.912C230.608 16.488 230.512 17.016 230.512 17.496V20.7C230.512 21.228 230.512 21.66 230.512 21.996C230.536 22.308 230.548 22.584 230.548 22.824C230.572 23.04 230.584 23.232 230.584 23.4C230.608 23.544 230.62 23.7 230.62 23.868L230.656 24.192C230.704 24.552 230.752 24.9 230.8 25.236C230.872 25.548 231.004 25.788 231.196 25.956C231.316 26.052 231.484 26.124 231.7 26.172C231.94 26.22 232.18 26.256 232.42 26.28C232.684 26.304 232.936 26.328 233.176 26.352C233.416 26.352 233.608 26.352 233.752 26.352L233.932 26.532L234.004 27L233.932 27.144C233.764 27.144 233.488 27.132 233.104 27.108C232.744 27.084 232.36 27.06 231.952 27.036C231.544 27.036 231.148 27.024 230.764 27C230.404 27 230.14 27 229.972 27H229.108C228.94 27 228.676 27 228.316 27C227.98 27.024 227.62 27.036 227.236 27.036C226.852 27.06 226.48 27.084 226.12 27.108C225.784 27.132 225.532 27.144 225.364 27.144L225.328 27L225.364 26.496L225.508 26.352C225.892 26.352 226.264 26.34 226.624 26.316C227.008 26.268 227.296 26.148 227.488 25.956C227.68 25.788 227.8 25.572 227.848 25.308C227.92 25.044 227.98 24.672 228.028 24.192L228.064 23.868C228.088 23.628 228.1 23.328 228.1 22.968C228.124 22.608 228.136 21.996 228.136 21.132V16.704C228.136 16.2 228.136 15.78 228.136 15.444C228.136 15.084 228.124 14.772 228.1 14.508C228.1 14.244 228.088 14.004 228.064 13.788C228.064 13.572 228.052 13.344 228.028 13.104C227.98 12.84 227.908 12.612 227.812 12.42C227.716 12.204 227.632 12.06 227.56 11.988C227.32 11.7 227.02 11.532 226.66 11.484C226.3 11.412 225.928 11.376 225.544 11.376L225.4 11.232V10.728L225.544 10.62H226.192C226.6 10.62 227.116 10.62 227.74 10.62C228.364 10.596 228.904 10.548 229.36 10.476L230.62 10.296L230.836 10.62C230.692 11.124 230.584 11.7 230.512 12.348C230.464 12.996 230.44 13.62 230.44 14.22L230.548 14.256ZM249.136 9.9C250.552 9.9 251.812 10.152 252.916 10.656C254.02 11.136 254.944 11.796 255.688 12.636C256.456 13.452 257.032 14.4 257.416 15.48C257.824 16.56 258.028 17.676 258.028 18.828C258.028 19.932 257.848 21 257.488 22.032C257.128 23.064 256.576 23.976 255.832 24.768C255.088 25.56 254.164 26.196 253.06 26.676C251.956 27.156 250.672 27.396 249.208 27.396C247.696 27.396 246.376 27.144 245.248 26.64C244.12 26.136 243.184 25.476 242.44 24.66C241.72 23.844 241.18 22.92 240.82 21.888C240.46 20.832 240.28 19.752 240.28 18.648C240.28 17.472 240.484 16.356 240.892 15.3C241.3 14.244 241.876 13.32 242.62 12.528C243.388 11.712 244.312 11.076 245.392 10.62C246.496 10.14 247.744 9.9 249.136 9.9ZM249.172 25.992C250.18 25.992 251.068 25.788 251.836 25.38C252.604 24.972 253.24 24.432 253.744 23.76C254.248 23.088 254.62 22.332 254.86 21.492C255.124 20.628 255.256 19.74 255.256 18.828C255.256 17.964 255.112 17.088 254.824 16.2C254.56 15.312 254.164 14.52 253.636 13.824C253.108 13.104 252.46 12.528 251.692 12.096C250.924 11.64 250.036 11.412 249.028 11.412C247.972 11.412 247.06 11.628 246.292 12.06C245.548 12.468 244.924 13.008 244.42 13.68C243.94 14.352 243.58 15.12 243.34 15.984C243.1 16.848 242.98 17.712 242.98 18.576C242.98 19.464 243.112 20.352 243.376 21.24C243.664 22.104 244.072 22.896 244.6 23.616C245.128 24.312 245.776 24.888 246.544 25.344C247.312 25.776 248.188 25.992 249.172 25.992Z" fill="white"/>
<path d="M78.6747 23.64C78.6747 22.424 79.0907 21.368 79.9227 20.472C80.7547 19.512 81.8107 19.032 83.0907 19.032C84.3067 19.032 85.3627 19.512 86.2587 20.472C87.2187 21.368 87.6987 22.424 87.6987 23.64C87.6987 24.856 87.2187 25.912 86.2587 26.808C85.3627 27.64 84.3067 28.056 83.0907 28.056C81.8107 28.056 80.7547 27.64 79.9227 26.808C79.0907 25.912 78.6747 24.856 78.6747 23.64ZM268.216 30.348C268.264 29.82 268.3 29.268 268.324 28.692C268.372 28.116 268.42 27.528 268.468 26.928C267.076 26.904 265.804 26.736 264.652 26.424C263.5 26.112 262.468 25.716 261.556 25.236L261.412 24.732L262.024 21.096H262.924L263.104 21.276C263.224 22.596 263.74 23.592 264.652 24.264C265.564 24.912 266.848 25.26 268.504 25.308C268.552 24.396 268.576 23.484 268.576 22.572C268.576 21.66 268.576 20.76 268.576 19.872V15.876C268.528 15.876 268.492 15.864 268.468 15.84C267.508 15.552 266.62 15.24 265.804 14.904C264.988 14.544 264.28 14.112 263.68 13.608C263.08 13.104 262.612 12.516 262.276 11.844C261.94 11.172 261.772 10.368 261.772 9.432C261.772 8.424 261.94 7.572 262.276 6.876C262.612 6.156 263.068 5.568 263.644 5.112C264.244 4.632 264.952 4.272 265.768 4.032C266.584 3.768 267.484 3.612 268.468 3.564C268.444 2.964 268.408 2.376 268.36 1.8C268.312 1.2 268.264 0.635997 268.216 0.107997L268.288 -3.8147e-06H270.484L270.556 0.107997C270.484 0.635997 270.424 1.2 270.376 1.8C270.352 2.376 270.316 2.964 270.268 3.564C271.372 3.612 272.392 3.756 273.328 3.996C274.288 4.212 275.08 4.452 275.704 4.716L275.848 5.112L275.344 8.172H274.336L274.192 7.992C274.144 7.488 273.988 7.068 273.724 6.732C273.484 6.396 273.172 6.12 272.788 5.904C272.404 5.688 271.984 5.532 271.528 5.436C271.096 5.34 270.664 5.268 270.232 5.22C270.208 5.988 270.196 6.72 270.196 7.416C270.196 8.088 270.196 8.7 270.196 9.252V13.356C270.22 13.38 270.256 13.392 270.304 13.392C271.192 13.656 272.056 13.968 272.896 14.328C273.76 14.688 274.528 15.144 275.2 15.696C275.872 16.224 276.4 16.884 276.784 17.676C277.192 18.444 277.396 19.38 277.396 20.484C277.396 21.54 277.204 22.452 276.82 23.22C276.46 23.964 275.956 24.6 275.308 25.128C274.684 25.632 273.94 26.028 273.076 26.316C272.212 26.604 271.288 26.784 270.304 26.856C270.328 27.48 270.364 28.08 270.412 28.656C270.46 29.232 270.508 29.796 270.556 30.348L270.484 30.456H268.288L268.216 30.348ZM270.196 19.872C270.196 20.736 270.196 21.624 270.196 22.536C270.196 23.448 270.208 24.36 270.232 25.272C271.744 25.08 272.848 24.6 273.544 23.832C274.264 23.064 274.624 22.104 274.624 20.952C274.624 20.304 274.504 19.74 274.264 19.26C274.024 18.78 273.7 18.36 273.292 18C272.908 17.64 272.44 17.34 271.888 17.1C271.36 16.836 270.796 16.596 270.196 16.38V19.872ZM264.4 9C264.4 9.552 264.484 10.02 264.652 10.404C264.82 10.788 265.072 11.124 265.408 11.412C265.744 11.7 266.176 11.964 266.704 12.204C267.232 12.42 267.856 12.636 268.576 12.852V9.252C268.576 8.7 268.576 8.088 268.576 7.416C268.576 6.72 268.564 5.988 268.54 5.22C267.22 5.34 266.2 5.724 265.48 6.372C264.76 6.996 264.4 7.872 264.4 9Z" fill="#67E480"/>
</g>
<defs>
<clipPath id="clip0">
<rect width="278" height="31" fill="white"/>
</clipPath>
</defs>
</svg>
